<svg width="800" height="500" xmlns="http://www.w3.org/2000/svg"><rect width="100%" height="100%" fill="white"/><text x="20" y="30" font-family="Arial" font-size="20">Context Tokens vs Total Tokens</text><circle cx="100" cy="214" r="3" fill="grey" opacity="0.5"/><circle cx="100" cy="196" r="3" fill="grey" opacity="0.5"/><circle cx="100" cy="207" r="3" fill="grey" opacity="0.5"/><circle cx="100" cy="216" r="3" fill="grey" opacity="0.5"/><circle cx="100" cy="231" r="3" fill="grey" opacity="0.5"/><circle cx="100" cy="212" r="3" fill="grey" opacity="0.5"/><circle cx="100" cy="212" r="3" fill="grey" opacity="0.5"/><circle cx="100" cy="204" r="3" fill="grey" opacity="0.5"/><circle cx="100" cy="236" r="3" fill="grey" opacity="0.5"/><circle cx="100" cy="188" r="3" fill="grey" opacity="0.5"/><circle cx="100" cy="311" r="3" fill="grey" opacity="0.5"/><circle cx="100" cy="343" r="3" fill="grey" opacity="0.5"/><circle cx="100" cy="319" r="3" fill="grey" opacity="0.5"/><circle cx="100" cy="377" r="3" fill="grey" opacity="0.5"/><circle cx="100" cy="322" r="3" fill="grey" opacity="0.5"/><circle cx="100" cy="344" r="3" fill="grey" opacity="0.5"/><circle cx="100" cy="342" r="3" fill="grey" opacity="0.5"/><circle cx="100" cy="339" r="3" fill="grey" opacity="0.5"/><circle cx="100" cy="378" r="3" fill="grey" opacity="0.5"/><circle cx="100" cy="387" r="3" fill="grey" opacity="0.5"/><circle cx="100" cy="154" r="3" fill="grey" opacity="0.5"/><circle cx="100" cy="112" r="3" fill="grey" opacity="0.5"/><circle cx="100" cy="134" r="3" fill="grey" opacity="0.5"/><circle cx="100" cy="100" r="3" fill="grey" opacity="0.5"/><circle cx="100" cy="158" r="3" fill="grey" opacity="0.5"/><circle cx="100" cy="147" r="3" fill="grey" opacity="0.5"/><circle cx="100" cy="123" r="3" fill="grey" opacity="0.5"/><circle cx="100" cy="119" r="3" fill="grey" opacity="0.5"/><circle cx="100" cy="135" r="3" fill="grey" opacity="0.5"/><circle cx="100" cy="116" r="3" fill="grey" opacity="0.5"/><circle cx="100" cy="387" r="3" fill="grey" opacity="0.5"/><circle cx="100" cy="390" r="3" fill="grey" opacity="0.5"/><circle cx="100" cy="367" r="3" fill="grey" opacity="0.5"/><circle cx="100" cy="391" r="3" fill="grey" opacity="0.5"/><circle cx="100" cy="391" r="3" fill="grey" opacity="0.5"/><circle cx="100" cy="390" r="3" fill="grey" opacity="0.5"/><circle cx="100" cy="349" r="3" fill="grey" opacity="0.5"/><circle cx="100" cy="371" r="3" fill="grey" opacity="0.5"/><circle cx="100" cy="387" r="3" fill="grey" opacity="0.5"/><circle cx="100" cy="374" r="3" fill="grey" opacity="0.5"/><circle cx="641" cy="312" r="3" fill="blue" opacity="0.5"/><circle cx="641" cy="312" r="3" fill="blue" opacity="0.5"/><circle cx="641" cy="312" r="3" fill="blue" opacity="0.5"/><circle cx="641" cy="312" r="3" fill="blue" opacity="0.5"/><circle cx="641" cy="312" r="3" fill="blue" opacity="0.5"/><circle cx="641" cy="312" r="3" fill="blue" opacity="0.5"/><circle cx="641" cy="312" r="3" fill="blue" opacity="0.5"/><circle cx="641" cy="312" r="3" fill="blue" opacity="0.5"/><circle cx="641" cy="312" r="3" fill="blue" opacity="0.5"/><circle cx="641" cy="312" r="3" fill="blue" opacity="0.5"/><circle cx="700" cy="355" r="3" fill="blue" opacity="0.5"/><circle cx="700" cy="355" r="3" fill="blue" opacity="0.5"/><circle cx="700" cy="355" r="3" fill="blue" opacity="0.5"/><circle cx="700" cy="355" r="3" fill="blue" opacity="0.5"/><circle cx="700" cy="355" r="3" fill="blue" opacity="0.5"/><circle cx="700" cy="355" r="3" fill="blue" opacity="0.5"/><circle cx="700" cy="355" r="3" fill="blue" opacity="0.5"/><circle cx="700" cy="355" r="3" fill="blue" opacity="0.5"/><circle cx="700" cy="355" r="3" fill="blue" opacity="0.5"/><circle cx="700" cy="355" r="3" fill="blue" opacity="0.5"/><circle cx="700" cy="269" r="3" fill="blue" opacity="0.5"/><circle cx="700" cy="269" r="3" fill="blue" opacity="0.5"/><circle cx="700" cy="269" r="3" fill="blue" opacity="0.5"/><circle cx="700" cy="269" r="3" fill="blue" opacity="0.5"/><circle cx="700" cy="269" r="3" fill="blue" opacity="0.5"/><circle cx="700" cy="269" r="3" fill="blue" opacity="0.5"/><circle cx="700" cy="269" r="3" fill="blue" opacity="0.5"/><circle cx="700" cy="269" r="3" fill="blue" opacity="0.5"/><circle cx="700" cy="269" r="3" fill="blue" opacity="0.5"/><circle cx="700" cy="269" r="3" fill="blue" opacity="0.5"/><circle cx="100" cy="298" r="3" fill="blue" opacity="0.5"/><circle cx="100" cy="298" r="3" fill="blue" opacity="0.5"/><circle cx="100" cy="298" r="3" fill="blue" opacity="0.5"/><circle cx="100" cy="298" r="3" fill="blue" opacity="0.5"/><circle cx="100" cy="298" r="3" fill="blue" opacity="0.5"/><circle cx="100" cy="298" r="3" fill="blue" opacity="0.5"/><circle cx="100" cy="298" r="3" fill="blue" opacity="0.5"/><circle cx="100" cy="298" r="3" fill="blue" opacity="0.5"/><circle cx="100" cy="298" r="3" fill="blue" opacity="0.5"/><circle cx="100" cy="298" r="3" fill="blue" opacity="0.5"/><circle cx="641" cy="312" r="3" fill="green" opacity="0.5"/><circle cx="641" cy="312" r="3" fill="green" opacity="0.5"/><circle cx="641" cy="312" r="3" fill="green" opacity="0.5"/><circle cx="641" cy="312" r="3" fill="green" opacity="0.5"/><circle cx="641" cy="312" r="3" fill="green" opacity="0.5"/><circle cx="641" cy="312" r="3" fill="green" opacity="0.5"/><circle cx="641" cy="312" r="3" fill="green" opacity="0.5"/><circle cx="641" cy="312" r="3" fill="green" opacity="0.5"/><circle cx="641" cy="312" r="3" fill="green" opacity="0.5"/><circle cx="641" cy="312" r="3" fill="green" opacity="0.5"/><circle cx="700" cy="355" r="3" fill="green" opacity="0.5"/><circle cx="700" cy="355" r="3" fill="green" opacity="0.5"/><circle cx="700" cy="355" r="3" fill="green" opacity="0.5"/><circle cx="700" cy="355" r="3" fill="green" opacity="0.5"/><circle cx="700" cy="355" r="3" fill="green" opacity="0.5"/><circle cx="700" cy="355" r="3" fill="green" opacity="0.5"/><circle cx="700" cy="355" r="3" fill="green" opacity="0.5"/><circle cx="700" cy="355" r="3" fill="green" opacity="0.5"/><circle cx="700" cy="355" r="3" fill="green" opacity="0.5"/><circle cx="700" cy="355" r="3" fill="green" opacity="0.5"/><circle cx="700" cy="269" r="3" fill="green" opacity="0.5"/><circle cx="700" cy="269" r="3" fill="green" opacity="0.5"/><circle cx="700" cy="269" r="3" fill="green" opacity="0.5"/><circle cx="700" cy="269" r="3" fill="green" opacity="0.5"/><circle cx="700" cy="269" r="3" fill="green" opacity="0.5"/><circle cx="700" cy="269" r="3" fill="green" opacity="0.5"/><circle cx="700" cy="269" r="3" fill="green" opacity="0.5"/><circle cx="700" cy="269" r="3" fill="green" opacity="0.5"/><circle cx="700" cy="269" r="3" fill="green" opacity="0.5"/><circle cx="700" cy="269" r="3" fill="green" opacity="0.5"/><circle cx="100" cy="298" r="3" fill="green" opacity="0.5"/><circle cx="100" cy="298" r="3" fill="green" opacity="0.5"/><circle cx="100" cy="298" r="3" fill="green" opacity="0.5"/><circle cx="100" cy="298" r="3" fill="green" opacity="0.5"/><circle cx="100" cy="298" r="3" fill="green" opacity="0.5"/><circle cx="100" cy="298" r="3" fill="green" opacity="0.5"/><circle cx="100" cy="298" r="3" fill="green" opacity="0.5"/><circle cx="100" cy="298" r="3" fill="green" opacity="0.5"/><circle cx="100" cy="298" r="3" fill="green" opacity="0.5"/><circle cx="100" cy="298" r="3" fill="green" opacity="0.5"/><circle cx="641" cy="312" r="3" fill="purple" opacity="0.5"/><circle cx="641" cy="312" r="3" fill="purple" opacity="0.5"/><circle cx="641" cy="312" r="3" fill="purple" opacity="0.5"/><circle cx="641" cy="312" r="3" fill="purple" opacity="0.5"/><circle cx="641" cy="312" r="3" fill="purple" opacity="0.5"/><circle cx="641" cy="312" r="3" fill="purple" opacity="0.5"/><circle cx="641" cy="312" r="3" fill="purple" opacity="0.5"/><circle cx="641" cy="312" r="3" fill="purple" opacity="0.5"/><circle cx="641" cy="312" r="3" fill="purple" opacity="0.5"/><circle cx="641" cy="312" r="3" fill="purple" opacity="0.5"/><circle cx="700" cy="355" r="3" fill="purple" opacity="0.5"/><circle cx="700" cy="355" r="3" fill="purple" opacity="0.5"/><circle cx="700" cy="355" r="3" fill="purple" opacity="0.5"/><circle cx="700" cy="355" r="3" fill="purple" opacity="0.5"/><circle cx="700" cy="355" r="3" fill="purple" opacity="0.5"/><circle cx="700" cy="355" r="3" fill="purple" opacity="0.5"/><circle cx="700" cy="355" r="3" fill="purple" opacity="0.5"/><circle cx="700" cy="355" r="3" fill="purple" opacity="0.5"/><circle cx="700" cy="355" r="3" fill="purple" opacity="0.5"/><circle cx="700" cy="355" r="3" fill="purple" opacity="0.5"/><circle cx="700" cy="269" r="3" fill="purple" opacity="0.5"/><circle cx="700" cy="269" r="3" fill="purple" opacity="0.5"/><circle cx="700" cy="269" r="3" fill="purple" opacity="0.5"/><circle cx="700" cy="269" r="3" fill="purple" opacity="0.5"/><circle cx="700" cy="269" r="3" fill="purple" opacity="0.5"/><circle cx="700" cy="269" r="3" fill="purple" opacity="0.5"/><circle cx="700" cy="269" r="3" fill="purple" opacity="0.5"/><circle cx="700" cy="269" r="3" fill="purple" opacity="0.5"/><circle cx="700" cy="269" r="3" fill="purple" opacity="0.5"/><circle cx="700" cy="269" r="3" fill="purple" opacity="0.5"/><circle cx="100" cy="298" r="3" fill="purple" opacity="0.5"/><circle cx="100" cy="298" r="3" fill="purple" opacity="0.5"/><circle cx="100" cy="298" r="3" fill="purple" opacity="0.5"/><circle cx="100" cy="298" r="3" fill="purple" opacity="0.5"/><circle cx="100" cy="298" r="3" fill="purple" opacity="0.5"/><circle cx="100" cy="298" r="3" fill="purple" opacity="0.5"/><circle cx="100" cy="298" r="3" fill="purple" opacity="0.5"/><circle cx="100" cy="298" r="3" fill="purple" opacity="0.5"/><circle cx="100" cy="298" r="3" fill="purple" opacity="0.5"/><circle cx="100" cy="298" r="3" fill="purple" opacity="0.5"/><circle cx="641" cy="312" r="3" fill="orange" opacity="0.5"/><circle cx="641" cy="312" r="3" fill="orange" opacity="0.5"/><circle cx="641" cy="312" r="3" fill="orange" opacity="0.5"/><circle cx="641" cy="312" r="3" fill="orange" opacity="0.5"/><circle cx="641" cy="312" r="3" fill="orange" opacity="0.5"/><circle cx="641" cy="312" r="3" fill="orange" opacity="0.5"/><circle cx="641" cy="312" r="3" fill="orange" opacity="0.5"/><circle cx="641" cy="312" r="3" fill="orange" opacity="0.5"/><circle cx="641" cy="312" r="3" fill="orange" opacity="0.5"/><circle cx="641" cy="312" r="3" fill="orange" opacity="0.5"/><circle cx="700" cy="355" r="3" fill="orange" opacity="0.5"/><circle cx="700" cy="355" r="3" fill="orange" opacity="0.5"/><circle cx="700" cy="355" r="3" fill="orange" opacity="0.5"/><circle cx="700" cy="355" r="3" fill="orange" opacity="0.5"/><circle cx="700" cy="355" r="3" fill="orange" opacity="0.5"/><circle cx="700" cy="355" r="3" fill="orange" opacity="0.5"/><circle cx="700" cy="355" r="3" fill="orange" opacity="0.5"/><circle cx="700" cy="355" r="3" fill="orange" opacity="0.5"/><circle cx="700" cy="355" r="3" fill="orange" opacity="0.5"/><circle cx="700" cy="355" r="3" fill="orange" opacity="0.5"/><circle cx="700" cy="269" r="3" fill="orange" opacity="0.5"/><circle cx="700" cy="269" r="3" fill="orange" opacity="0.5"/><circle cx="700" cy="269" r="3" fill="orange" opacity="0.5"/><circle cx="700" cy="269" r="3" fill="orange" opacity="0.5"/><circle cx="700" cy="269" r="3" fill="orange" opacity="0.5"/><circle cx="700" cy="269" r="3" fill="orange" opacity="0.5"/><circle cx="700" cy="269" r="3" fill="orange" opacity="0.5"/><circle cx="700" cy="269" r="3" fill="orange" opacity="0.5"/><circle cx="700" cy="269" r="3" fill="orange" opacity="0.5"/><circle cx="700" cy="269" r="3" fill="orange" opacity="0.5"/><circle cx="100" cy="298" r="3" fill="orange" opacity="0.5"/><circle cx="100" cy="298" r="3" fill="orange" opacity="0.5"/><circle cx="100" cy="298" r="3" fill="orange" opacity="0.5"/><circle cx="100" cy="298" r="3" fill="orange" opacity="0.5"/><circle cx="100" cy="298" r="3" fill="orange" opacity="0.5"/><circle cx="100" cy="298" r="3" fill="orange" opacity="0.5"/><circle cx="100" cy="298" r="3" fill="orange" opacity="0.5"/><circle cx="100" cy="298" r="3" fill="orange" opacity="0.5"/><circle cx="100" cy="298" r="3" fill="orange" opacity="0.5"/><circle cx="100" cy="298" r="3" fill="orange" opacity="0.5"/><circle cx="641" cy="312" r="3" fill="cyan" opacity="0.5"/><circle cx="641" cy="312" r="3" fill="cyan" opacity="0.5"/><circle cx="641" cy="312" r="3" fill="cyan" opacity="0.5"/><circle cx="641" cy="312" r="3" fill="cyan" opacity="0.5"/><circle cx="641" cy="312" r="3" fill="cyan" opacity="0.5"/><circle cx="641" cy="312" r="3" fill="cyan" opacity="0.5"/><circle cx="641" cy="312" r="3" fill="cyan" opacity="0.5"/><circle cx="641" cy="312" r="3" fill="cyan" opacity="0.5"/><circle cx="641" cy="312" r="3" fill="cyan" opacity="0.5"/><circle cx="641" cy="312" r="3" fill="cyan" opacity="0.5"/><circle cx="700" cy="355" r="3" fill="cyan" opacity="0.5"/><circle cx="700" cy="355" r="3" fill="cyan" opacity="0.5"/><circle cx="700" cy="355" r="3" fill="cyan" opacity="0.5"/><circle cx="700" cy="355" r="3" fill="cyan" opacity="0.5"/><circle cx="700" cy="355" r="3" fill="cyan" opacity="0.5"/><circle cx="700" cy="355" r="3" fill="cyan" opacity="0.5"/><circle cx="700" cy="355" r="3" fill="cyan" opacity="0.5"/><circle cx="700" cy="355" r="3" fill="cyan" opacity="0.5"/><circle cx="700" cy="355" r="3" fill="cyan" opacity="0.5"/><circle cx="700" cy="355" r="3" fill="cyan" opacity="0.5"/><circle cx="700" cy="269" r="3" fill="cyan" opacity="0.5"/><circle cx="700" cy="269" r="3" fill="cyan" opacity="0.5"/><circle cx="700" cy="269" r="3" fill="cyan" opacity="0.5"/><circle cx="700" cy="269" r="3" fill="cyan" opacity="0.5"/><circle cx="700" cy="269" r="3" fill="cyan" opacity="0.5"/><circle cx="700" cy="269" r="3" fill="cyan" opacity="0.5"/><circle cx="700" cy="269" r="3" fill="cyan" opacity="0.5"/><circle cx="700" cy="269" r="3" fill="cyan" opacity="0.5"/><circle cx="700" cy="269" r="3" fill="cyan" opacity="0.5"/><circle cx="700" cy="269" r="3" fill="cyan" opacity="0.5"/><circle cx="100" cy="298" r="3" fill="cyan" opacity="0.5"/><circle cx="100" cy="298" r="3" fill="cyan" opacity="0.5"/><circle cx="100" cy="298" r="3" fill="cyan" opacity="0.5"/><circle cx="100" cy="298" r="3" fill="cyan" opacity="0.5"/><circle cx="100" cy="298" r="3" fill="cyan" opacity="0.5"/><circle cx="100" cy="298" r="3" fill="cyan" opacity="0.5"/><circle cx="100" cy="298" r="3" fill="cyan" opacity="0.5"/><circle cx="100" cy="298" r="3" fill="cyan" opacity="0.5"/><circle cx="100" cy="298" r="3" fill="cyan" opacity="0.5"/><circle cx="100" cy="298" r="3" fill="cyan" opacity="0.5"/><text x="50" y="400" font-family="Arial" font-size="12" transform="rotate(-90 50,400)">Total Tokens</text><text x="400" y="450" font-family="Arial" font-size="12">Context Tokens</text></svg>